<?xml version="1.0" encoding="UTF-8" standalone="no"?><!DOCTYPE svg PUBLIC "-//W3C//DTD SVG 1.1//EN" "http://www.w3.org/Graphics/SVG/1.1/DTD/svg11.dtd"><!-- Generated by graphviz version 2.40.1 (20161225.0304)
 --><!-- Title: wWinMain Pages: 1 --><svg xmlns="http://www.w3.org/2000/svg" xmlns:xlink="http://www.w3.org/1999/xlink" width="926pt" height="550pt" viewBox="0.00 0.00 925.62 550.00">
<g id="graph0" class="graph" transform="scale(1 1) rotate(0) translate(4 546)">
<title>wWinMain</title>
<g id="clust1" class="cluster">
<title>cluster_0</title>
<polygon fill="#d3d3d3" stroke="#d3d3d3" points="259.877,-410 259.877,-514 891.2925,-514 891.2925,-410 259.877,-410"/>
<text text-anchor="start" x="487.0608" y="-493.8" font-family="Helvetica,sans-Serif" font-size="18.00" fill="#000000">Audio Capture Thread</text>
</g>
<g id="clust2" class="cluster">
<title>cluster_1</title>
<polygon fill="#d3d3d3" stroke="#d3d3d3" points="420.229,-268 420.229,-372 909.619,-372 909.619,-268 420.229,-268"/>
<text text-anchor="start" x="553.9198" y="-351.8" font-family="Helvetica,sans-Serif" font-size="18.00" fill="#000000">Goertzel Work Threads (x8)</text>
</g>
<!-- Node5 -->
<g id="node1" class="node">
<title>Node5</title>
<g id="a_node1"><a xlink:href="$audio_8cpp.html#a0d5a135c46acd46c0de0f0135c586b5f" xlink:title="This thread waits for the audio device to call us back when it has some data to process.">
<polygon fill="#ffffff" stroke="#666666" points="375.4154,-438 268.0306,-438 268.0306,-418 375.4154,-418 375.4154,-438"/>
<text text-anchor="middle" x="321.723" y="-425" font-family="Helvetica,sans-Serif" font-size="10.00" fill="#000000">audioCaptureThread</text>
</a>
</g>
</g>
<!-- Node6 -->
<g id="node2" class="node">
<title>Node6</title>
<g id="a_node2"><a xlink:href="$audio_8cpp.html#a904b8424a3b1eba0ee5be3c7797d0846" xlink:title="Get audio frames from the device and process them.">
<polygon fill="#ffffff" stroke="#666666" points="519.529,-438 443.493,-438 443.493,-418 519.529,-418 519.529,-438"/>
<text text-anchor="middle" x="481.511" y="-425" font-family="Helvetica,sans-Serif" font-size="10.00" fill="#000000">audioCapture</text>
</a>
</g>
</g>
<!-- Node5&#45;&gt;Node6 -->
<g id="edge1" class="edge">
<title>Node5-&gt;Node6</title>
<path fill="none" stroke="#63b8ff" d="M375.8199,-428C394.3733,-428 415.0058,-428 433.0811,-428"/>
<polygon fill="#63b8ff" stroke="#63b8ff" points="433.1108,-431.5001 443.1107,-428 433.1107,-424.5001 433.1108,-431.5001"/>
</g>
<!-- Node8 -->
<g id="node15" class="node">
<title>Node8</title>
<g id="a_node15"><a xlink:href="$DTMF__Decoder_8cpp.html#ab51c747b8e9f544fb2cb2ada323c9292" xlink:title="Gracefully initiate the shutdown of the application.">
<polygon fill="#ffffff" stroke="#666666" points="710.449,-400 614.399,-400 614.399,-380 710.449,-380 710.449,-400"/>
<text text-anchor="middle" x="662.424" y="-387" font-family="Helvetica,sans-Serif" font-size="10.00" fill="#000000">gracefulShutdown</text>
</a>
</g>
</g>
<!-- Node5&#45;&gt;Node8 -->
<g id="edge14" class="edge">
<title>Node5-&gt;Node8</title>
<path fill="none" stroke="#63b8ff" d="M368.1477,-417.934C384.5387,-414.6757 403.1417,-411.3107 420.229,-409 482.6625,-400.5571 554.6962,-395.4981 603.8701,-392.7486"/>
<polygon fill="#63b8ff" stroke="#63b8ff" points="604.2098,-396.2353 614.0046,-392.1965 603.829,-389.2457 604.2098,-396.2353"/>
</g>
<!-- Node7 -->
<g id="node3" class="node">
<title>Node7</title>
<g id="a_node3"><a xlink:href="$goertzel_8cpp.html#a1403e4b9b099e2b67396c6999d80154a" xlink:title="Signal the 8 Goertzel worker threads, then wait for them to finish their analysis.">
<polygon fill="#ffffff" stroke="#666666" points="737.9108,-438 586.9372,-438 586.9372,-418 737.9108,-418 737.9108,-438"/>
<text text-anchor="middle" x="662.424" y="-425" font-family="Helvetica,sans-Serif" font-size="10.00" fill="#000000">goertzel_compute_dtmf_tones</text>
</a>
</g>
</g>
<!-- Node6&#45;&gt;Node7 -->
<g id="edge2" class="edge">
<title>Node6-&gt;Node7</title>
<path fill="none" stroke="#63b8ff" d="M519.878,-428C536.5593,-428 556.8258,-428 576.7793,-428"/>
<polygon fill="#63b8ff" stroke="#63b8ff" points="576.8471,-431.5001 586.847,-428 576.847,-424.5001 576.8471,-431.5001"/>
</g>
<!-- Node9 -->
<g id="node4" class="node">
<title>Node9</title>
<g id="a_node4"><a xlink:href="$audio_8cpp.html#a6cda0abf4600bd7ee57889f9a995ba96" xlink:title="Process the audio frameIndex, converting it into PCM_8, adding the sample to gPcmQueue and monitoring...">
<polygon fill="#ffffff" stroke="#666666" points="715.381,-476 609.467,-476 609.467,-456 715.381,-456 715.381,-476"/>
<text text-anchor="middle" x="662.424" y="-463" font-family="Helvetica,sans-Serif" font-size="10.00" fill="#000000">processAudioFrame</text>
</a>
</g>
</g>
<!-- Node6&#45;&gt;Node9 -->
<g id="edge3" class="edge">
<title>Node6-&gt;Node9</title>
<path fill="none" stroke="#63b8ff" d="M519.735,-436.1802C535.536,-439.5498 554.0434,-443.4812 570.793,-447 581.5053,-449.2504 592.9258,-451.6324 603.9399,-453.9207"/>
<polygon fill="#63b8ff" stroke="#63b8ff" points="603.4059,-457.3844 613.9085,-455.9894 604.8284,-450.5304 603.4059,-457.3844"/>
</g>
<!-- Node6&#45;&gt;Node8 -->
<g id="edge13" class="edge">
<title>Node6-&gt;Node8</title>
<path fill="none" stroke="#63b8ff" d="M519.6121,-417.9998C535.3942,-414.0172 553.9208,-409.5474 570.793,-406 581.5615,-403.7359 593.0893,-401.5435 604.2094,-399.5451"/>
<polygon fill="#63b8ff" stroke="#63b8ff" points="605.0345,-402.9536 614.2735,-397.7678 603.8172,-396.0602 605.0345,-402.9536"/>
</g>
<!-- Node10 -->
<g id="node5" class="node">
<title>Node10</title>
<g id="a_node5"><a xlink:href="$mvcModel_8h.html#a58d02f9b7016647bfc4e83e2da3df637" xlink:title="Enqueue a byte of PCM data to gPcmQueue">
<polygon fill="#ffffff" stroke="#666666" points="883.2481,-476 808.4259,-476 808.4259,-456 883.2481,-456 883.2481,-476"/>
<text text-anchor="middle" x="845.837" y="-463" font-family="Helvetica,sans-Serif" font-size="10.00" fill="#000000">pcmEnqueue</text>
</a>
</g>
</g>
<!-- Node9&#45;&gt;Node10 -->
<g id="edge4" class="edge">
<title>Node9-&gt;Node10</title>
<path fill="none" stroke="#63b8ff" d="M715.4746,-466C741.604,-466 772.858,-466 798.213,-466"/>
<polygon fill="#63b8ff" stroke="#63b8ff" points="798.3283,-469.5001 808.3283,-466 798.3282,-462.5001 798.3283,-469.5001"/>
</g>
<!-- Node13 -->
<g id="node6" class="node">
<title>Node13</title>
<g id="a_node6"><a xlink:href="$goertzel_8cpp.html#a66d78f41dc38ffa372912b2d4078023f" xlink:title="Runs one of the 8 DFT worker threads.">
<polygon fill="#ffffff" stroke="#666666" points="534.5759,-334 428.4461,-334 428.4461,-314 534.5759,-314 534.5759,-334"/>
<text text-anchor="middle" x="481.511" y="-321" font-family="Helvetica,sans-Serif" font-size="10.00" fill="#000000">goertzelWorkThread</text>
</a>
</g>
</g>
<!-- Node14 -->
<g id="node7" class="node">
<title>Node14</title>
<g id="a_node7"><a xlink:href="$goertzel_8cpp.html#a7b931e498a5f0a93f2a1db8af404ccf4" xlink:title="Compute the Goertzel magnitude of 8-bit PCM data.">
<polygon fill="#ffffff" stroke="#666666" points="714.2272,-296 610.6208,-296 610.6208,-276 714.2272,-276 714.2272,-296"/>
<text text-anchor="middle" x="662.424" y="-283" font-family="Helvetica,sans-Serif" font-size="10.00" fill="#000000">goertzel_magnitude</text>
</a>
</g>
</g>
<!-- Node13&#45;&gt;Node14 -->
<g id="edge5" class="edge">
<title>Node13-&gt;Node14</title>
<path fill="none" stroke="#63b8ff" d="M528.3014,-313.9945C541.9934,-311.0797 556.9901,-307.8997 570.793,-305 581.5053,-302.7496 592.9258,-300.3676 603.9399,-298.0793"/>
<polygon fill="#63b8ff" stroke="#63b8ff" points="604.8284,-301.4696 613.9085,-296.0106 603.4059,-294.6156 604.8284,-301.4696"/>
</g>
<!-- Node15 -->
<g id="node8" class="node">
<title>Node15</title>
<g id="a_node8"><a xlink:href="$mvcModel_8h.html#a7de7b93a7c3e0280e0df75d860053fd5" xlink:title="Determine if the state of a DTMF tone detection has changed.">
<polygon fill="#ffffff" stroke="#666666" points="754.1862,-334 570.6618,-334 570.6618,-314 754.1862,-314 754.1862,-334"/>
<text text-anchor="middle" x="662.424" y="-321" font-family="Helvetica,sans-Serif" font-size="10.00" fill="#000000">mvcModelToggleToneDetectedStatus</text>
</a>
</g>
</g>
<!-- Node13&#45;&gt;Node15 -->
<g id="edge6" class="edge">
<title>Node13-&gt;Node15</title>
<path fill="none" stroke="#63b8ff" d="M534.8124,-324C542.9031,-324 551.4738,-324 560.193,-324"/>
<polygon fill="#63b8ff" stroke="#63b8ff" points="560.4769,-327.5001 570.4769,-324 560.4768,-320.5001 560.4769,-327.5001"/>
</g>
<!-- Node13&#45;&gt;Node8 -->
<g id="edge18" class="edge">
<title>Node13-&gt;Node8</title>
<path fill="none" stroke="#63b8ff" d="M494.9376,-334.0129C511.7505,-346.0152 541.8704,-365.7851 570.793,-376 581.249,-379.6928 592.7148,-382.412 603.8894,-384.4141"/>
<polygon fill="#63b8ff" stroke="#63b8ff" points="603.6012,-387.913 614.0325,-386.0586 604.7215,-381.0032 603.6012,-387.913"/>
</g>
<!-- Node16 -->
<g id="node9" class="node">
<title>Node16</title>
<g id="a_node9"><a xlink:href="$mvcView_8cpp.html#aed94d0658dc95df369ab6e4a9cf029f2" xlink:title="Invalidate the column (not the whole screen)">
<polygon fill="#ffffff" stroke="#666666" points="901.4018,-296 790.2722,-296 790.2722,-276 901.4018,-276 901.4018,-296"/>
<text text-anchor="middle" x="845.837" y="-283" font-family="Helvetica,sans-Serif" font-size="10.00" fill="#000000">mvcInvalidateColumn</text>
</a>
</g>
</g>
<!-- Node15&#45;&gt;Node16 -->
<g id="edge7" class="edge">
<title>Node15-&gt;Node16</title>
<path fill="none" stroke="#63b8ff" d="M711.0938,-313.9165C734.506,-309.0659 762.7579,-303.2126 787.3325,-298.1211"/>
<polygon fill="#63b8ff" stroke="#63b8ff" points="788.1763,-301.5207 797.2583,-296.0647 786.7562,-294.6663 788.1763,-301.5207"/>
</g>
<!-- Node17 -->
<g id="node10" class="node">
<title>Node17</title>
<g id="a_node10"><a xlink:href="$mvcView_8cpp.html#a313f75e9324507b538855f9a00935c9b" xlink:title="Invalidate just the row (not the whole screen)">
<polygon fill="#ffffff" stroke="#666666" points="894.4541,-334 797.2199,-334 797.2199,-314 894.4541,-314 894.4541,-334"/>
<text text-anchor="middle" x="845.837" y="-321" font-family="Helvetica,sans-Serif" font-size="10.00" fill="#000000">mvcInvalidateRow</text>
</a>
</g>
</g>
<!-- Node15&#45;&gt;Node17 -->
<g id="edge8" class="edge">
<title>Node15-&gt;Node17</title>
<path fill="none" stroke="#63b8ff" d="M754.1305,-324C765.2804,-324 776.4302,-324 786.9208,-324"/>
<polygon fill="#63b8ff" stroke="#63b8ff" points="787.1673,-327.5001 797.1672,-324 787.1672,-320.5001 787.1673,-327.5001"/>
</g>
<!-- Node1 -->
<g id="node11" class="node">
<title>Node1</title>
<g id="a_node11"><a xlink:title="Program entrypoint.">
<polygon fill="#999999" stroke="#666666" points="62.1531,-314 -.0511,-314 -.0511,-294 62.1531,-294 62.1531,-314"/>
<text text-anchor="middle" x="31.051" y="-301" font-family="Helvetica,sans-Serif" font-size="10.00" fill="#000000">wWinMain</text>
</a>
</g>
</g>
<!-- Node2 -->
<g id="node12" class="node">
<title>Node2</title>
<g id="a_node12"><a xlink:href="$audio_8cpp.html#a14c68cb6d5f722f9905d837f3b199b5e" xlink:title="Cleanup all things audio.">
<polygon fill="#ffffff" stroke="#666666" points="195.3481,-480 117.9709,-480 117.9709,-460 195.3481,-460 195.3481,-480"/>
<text text-anchor="middle" x="156.6595" y="-467" font-family="Helvetica,sans-Serif" font-size="10.00" fill="#000000">audioCleanup</text>
</a>
</g>
</g>
<!-- Node1&#45;&gt;Node2 -->
<g id="edge9" class="edge">
<title>Node1-&gt;Node2</title>
<path fill="none" stroke="#63b8ff" d="M38.9084,-314.384C59.6155,-341.7499 115.9065,-416.1423 142.4488,-451.2196"/>
<polygon fill="#63b8ff" stroke="#63b8ff" points="139.98,-453.7574 148.8051,-459.6199 145.5621,-449.5336 139.98,-453.7574"/>
</g>
<!-- Node4 -->
<g id="node14" class="node">
<title>Node4</title>
<g id="a_node14"><a xlink:href="$audio_8cpp.html#ab70c083a94ae0d8c4d41f3f16f5fadf6" xlink:title="Initialize the audio capture device and start the capture thread.">
<polygon fill="#ffffff" stroke="#666666" points="183.4509,-371 129.8681,-371 129.8681,-351 183.4509,-351 183.4509,-371"/>
<text text-anchor="middle" x="156.6595" y="-358" font-family="Helvetica,sans-Serif" font-size="10.00" fill="#000000">audioInit</text>
</a>
</g>
</g>
<!-- Node1&#45;&gt;Node4 -->
<g id="edge11" class="edge">
<title>Node1-&gt;Node4</title>
<path fill="none" stroke="#63b8ff" d="M46.837,-314.1565C60.1345,-322.4126 79.8551,-333.9677 98.102,-342 105.029,-345.0493 112.6043,-347.8654 119.9392,-350.344"/>
<polygon fill="#63b8ff" stroke="#63b8ff" points="119.117,-353.7566 129.7089,-353.505 121.2719,-347.0965 119.117,-353.7566"/>
</g>
<!-- Node19 -->
<g id="node19" class="node">
<title>Node19</title>
<g id="a_node19"><a xlink:href="$log_8cpp.html#a55bedd559f44901637ef8ed7bc7017cf" xlink:title="Initialize the logger.">
<polygon fill="#ffffff" stroke="#666666" points="177.8337,-333 135.4853,-333 135.4853,-313 177.8337,-313 177.8337,-333"/>
<text text-anchor="middle" x="156.6595" y="-320" font-family="Helvetica,sans-Serif" font-size="10.00" fill="#000000">logInit</text>
</a>
</g>
</g>
<!-- Node1&#45;&gt;Node19 -->
<g id="edge20" class="edge">
<title>Node1-&gt;Node19</title>
<path fill="none" stroke="#63b8ff" d="M62.4233,-308.7455C81.5523,-311.639 105.9229,-315.3254 125.0881,-318.2244"/>
<polygon fill="#63b8ff" stroke="#63b8ff" points="124.7226,-321.7088 135.1336,-319.7439 125.7695,-314.7876 124.7226,-321.7088"/>
</g>
<!-- Node20 -->
<g id="node20" class="node">
<title>Node20</title>
<g id="a_node20"><a xlink:href="$mvcModel_8cpp.html#afba4e16ba72d01f6eb03b9c4f4a4d400" xlink:title="Currently does nothing, but it's good to have around.">
<polygon fill="#ffffff" stroke="#666666" points="194.0496,-295 119.2694,-295 119.2694,-275 194.0496,-275 194.0496,-295"/>
<text text-anchor="middle" x="156.6595" y="-282" font-family="Helvetica,sans-Serif" font-size="10.00" fill="#000000">mvcModelInit</text>
</a>
</g>
</g>
<!-- Node1&#45;&gt;Node20 -->
<g id="edge21" class="edge">
<title>Node1-&gt;Node20</title>
<path fill="none" stroke="#63b8ff" d="M62.4233,-299.2545C76.4908,-297.1266 93.3929,-294.5699 108.9749,-292.2129"/>
<polygon fill="#63b8ff" stroke="#63b8ff" points="109.6168,-295.6558 118.9808,-290.6994 108.5698,-288.7345 109.6168,-295.6558"/>
</g>
<!-- Node21 -->
<g id="node21" class="node">
<title>Node21</title>
<g id="a_node21"><a xlink:href="$mvcView_8cpp.html#a439e3f885b2da7f984a87d9621ee6803" xlink:title="Initialize all of the resources needed to draw the main window.">
<polygon fill="#ffffff" stroke="#666666" points="215.2746,-257 98.0444,-257 98.0444,-237 215.2746,-237 215.2746,-257"/>
<text text-anchor="middle" x="156.6595" y="-244" font-family="Helvetica,sans-Serif" font-size="10.00" fill="#000000">mvcViewInitResources</text>
</a>
</g>
</g>
<!-- Node1&#45;&gt;Node21 -->
<g id="edge22" class="edge">
<title>Node1-&gt;Node21</title>
<path fill="none" stroke="#63b8ff" d="M46.837,-293.8435C60.1345,-285.5874 79.8551,-274.0323 98.102,-266 102.5743,-264.0313 107.3168,-262.1598 112.0904,-260.4135"/>
<polygon fill="#63b8ff" stroke="#63b8ff" points="113.5624,-263.6072 121.8558,-257.0141 111.261,-256.9963 113.5624,-263.6072"/>
</g>
<!-- Node22 -->
<g id="node22" class="node">
<title>Node22</title>
<g id="a_node22"><a xlink:href="$DTMF__Decoder_8cpp.html#a30a1e3b0304f1b083637664cbda94e72" xlink:title="Message handler for the main window.">
<polygon fill="#ffffff" stroke="#666666" points="185.2736,-200 128.0454,-200 128.0454,-180 185.2736,-180 185.2736,-200"/>
<text text-anchor="middle" x="156.6595" y="-187" font-family="Helvetica,sans-Serif" font-size="10.00" fill="#000000">WndProc</text>
</a>
</g>
</g>
<!-- Node1&#45;&gt;Node22 -->
<g id="edge23" class="edge">
<title>Node1-&gt;Node22</title>
<path fill="none" stroke="#63b8ff" d="M38.5412,-293.8635C50.1933,-278.5053 73.8529,-248.9167 98.102,-228 107.755,-219.6736 119.3616,-211.7741 129.6867,-205.3565"/>
<polygon fill="#63b8ff" stroke="#63b8ff" points="131.5986,-208.2906 138.349,-200.1247 127.9796,-202.2987 131.5986,-208.2906"/>
</g>
<!-- Node3 -->
<g id="node13" class="node">
<title>Node3</title>
<g id="a_node13"><a xlink:href="$mvcModel_8cpp.html#a599848a20b16abb30c5ccdac8759f7b0" xlink:title="Release the memory allocated to gPcmQueue.">
<polygon fill="#ffffff" stroke="#666666" points="372.3009,-542 271.1451,-542 271.1451,-522 372.3009,-522 372.3009,-542"/>
<text text-anchor="middle" x="321.723" y="-529" font-family="Helvetica,sans-Serif" font-size="10.00" fill="#000000">pcmReleaseQueue</text>
</a>
</g>
</g>
<!-- Node2&#45;&gt;Node3 -->
<g id="edge10" class="edge">
<title>Node2-&gt;Node3</title>
<path fill="none" stroke="#63b8ff" d="M173.1264,-480.1209C191.5253,-491.0031 222.5076,-508.0741 251.217,-518 254.3426,-519.0806 257.5765,-520.0875 260.863,-521.0244"/>
<polygon fill="#63b8ff" stroke="#63b8ff" points="260.2637,-524.4853 270.8239,-523.6287 262.0344,-517.713 260.2637,-524.4853"/>
</g>
<!-- Node4&#45;&gt;Node5 -->
<g id="edge12" class="edge">
<title>Node4-&gt;Node5</title>
<path fill="none" stroke="#63b8ff" d="M173.9378,-371.1442C192.527,-381.7275 223.201,-398.247 251.217,-409 256.8277,-411.1535 262.7783,-413.161 268.7503,-415.0027"/>
<polygon fill="#63b8ff" stroke="#63b8ff" points="268.1841,-418.484 278.765,-417.9421 270.1555,-411.7674 268.1841,-418.484"/>
</g>
<!-- Node11 -->
<g id="node16" class="node">
<title>Node11</title>
<g id="a_node16"><a xlink:href="$audio_8cpp.html#ae5d64151681c70f4e2aa8f2030c85a40" xlink:title="Print the WAVEFORMATEX or WAVEFORMATEXTENSIBLE structure to OutputDebug.">
<polygon fill="#ffffff" stroke="#666666" points="380.9542,-400 262.4918,-400 262.4918,-380 380.9542,-380 380.9542,-400"/>
<text text-anchor="middle" x="321.723" y="-387" font-family="Helvetica,sans-Serif" font-size="10.00" fill="#000000">audioPrintWaveFormat</text>
</a>
</g>
</g>
<!-- Node4&#45;&gt;Node11 -->
<g id="edge15" class="edge">
<title>Node4-&gt;Node11</title>
<path fill="none" stroke="#63b8ff" d="M183.5472,-365.7239C202.8169,-369.1094 229.662,-373.8258 254.5697,-378.2018"/>
<polygon fill="#63b8ff" stroke="#63b8ff" points="254.2749,-381.7036 264.7297,-379.9869 255.4862,-374.8092 254.2749,-381.7036"/>
</g>
<!-- Node12 -->
<g id="node17" class="node">
<title>Node12</title>
<g id="a_node17"><a xlink:href="$goertzel_8cpp.html#a8a455f45eb4c8d36a38dcfc671c12ae5" xlink:title="Initialize values needed by the Goertzel DFT.">
<polygon fill="#ffffff" stroke="#666666" points="356.6211,-362 286.8249,-362 286.8249,-342 356.6211,-342 356.6211,-362"/>
<text text-anchor="middle" x="321.723" y="-349" font-family="Helvetica,sans-Serif" font-size="10.00" fill="#000000">goertzel_init</text>
</a>
</g>
</g>
<!-- Node4&#45;&gt;Node12 -->
<g id="edge16" class="edge">
<title>Node4-&gt;Node12</title>
<path fill="none" stroke="#63b8ff" d="M183.5472,-359.534C208.7163,-358.1616 246.8091,-356.0846 276.6284,-354.4588"/>
<polygon fill="#63b8ff" stroke="#63b8ff" points="277.0015,-357.9437 286.7961,-353.9044 276.6204,-350.9541 277.0015,-357.9437"/>
</g>
<!-- Node18 -->
<g id="node18" class="node">
<title>Node18</title>
<g id="a_node18"><a xlink:href="$mvcModel_8cpp.html#af8dd5b7c6f2c447fa7eee420a54b9ce7" xlink:title="Set the size of gPcmQueue, allocate and zero the space for it.">
<polygon fill="#ffffff" stroke="#666666" points="371.5806,-324 271.8654,-324 271.8654,-304 371.5806,-304 371.5806,-324"/>
<text text-anchor="middle" x="321.723" y="-311" font-family="Helvetica,sans-Serif" font-size="10.00" fill="#000000">pcmSetQueueSize</text>
</a>
</g>
</g>
<!-- Node4&#45;&gt;Node18 -->
<g id="edge19" class="edge">
<title>Node4-&gt;Node18</title>
<path fill="none" stroke="#63b8ff" d="M183.5087,-352.8577C202.4079,-347.1734 228.3169,-339.4751 251.217,-333 258.5116,-330.9374 266.2453,-328.8018 273.8149,-326.7397"/>
<polygon fill="#63b8ff" stroke="#63b8ff" points="274.8837,-330.0764 283.6208,-324.0836 273.0535,-323.3199 274.8837,-330.0764"/>
</g>
<!-- Node12&#45;&gt;Node13 -->
<g id="edge17" class="edge">
<title>Node12-&gt;Node13</title>
<path fill="none" stroke="#63b8ff" d="M356.7892,-345.8553C374.7895,-342.701 397.2784,-338.7603 418.1844,-335.0969"/>
<polygon fill="#63b8ff" stroke="#63b8ff" points="419.0477,-338.499 428.2935,-333.3254 417.8394,-331.6041 419.0477,-338.499"/>
</g>
<!-- Node23 -->
<g id="node23" class="node">
<title>Node23</title>
<g id="a_node23"><a xlink:href="$DTMF__Decoder_8cpp.html#aa9ea8fa776a88d87ad4600dfe701882a" xlink:title="Message handler for the About dialog box.">
<polygon fill="#ffffff" stroke="#666666" points="342.8482,-286 300.5978,-286 300.5978,-266 342.8482,-266 342.8482,-286"/>
<text text-anchor="middle" x="321.723" y="-273" font-family="Helvetica,sans-Serif" font-size="10.00" fill="#000000">About</text>
</a>
</g>
</g>
<!-- Node22&#45;&gt;Node23 -->
<g id="edge24" class="edge">
<title>Node22-&gt;Node23</title>
<path fill="none" stroke="#63b8ff" d="M173.1151,-200.0469C185.0195,-207.4663 201.3779,-217.9759 215.217,-228 231.8562,-240.0524 232.9054,-247.6828 251.217,-257 263.3985,-263.1981 277.8247,-267.5455 290.4445,-270.5017"/>
<polygon fill="#63b8ff" stroke="#63b8ff" points="290.0192,-273.9901 300.5312,-272.6678 291.489,-267.1462 290.0192,-273.9901"/>
</g>
<!-- Node24 -->
<g id="node24" class="node">
<title>Node24</title>
<g id="a_node24"><a xlink:href="$audio_8cpp.html#afa5f082435f8bb7259188938ac7126cb" xlink:title="Stop the audio device.">
<polygon fill="#ffffff" stroke="#666666" points="367.301,-248 276.145,-248 276.145,-228 367.301,-228 367.301,-248"/>
<text text-anchor="middle" x="321.723" y="-235" font-family="Helvetica,sans-Serif" font-size="10.00" fill="#000000">audioStopDevice</text>
</a>
</g>
</g>
<!-- Node22&#45;&gt;Node24 -->
<g id="edge25" class="edge">
<title>Node22-&gt;Node24</title>
<path fill="none" stroke="#63b8ff" d="M185.5518,-199.1427C204.2355,-204.9852 229.1066,-212.6323 251.217,-219 258.5015,-221.0979 266.2299,-223.2524 273.7972,-225.3226"/>
<polygon fill="#63b8ff" stroke="#63b8ff" points="273.0339,-228.742 283.6016,-227.9836 274.8675,-221.9864 273.0339,-228.742"/>
</g>
<!-- Node25 -->
<g id="node25" class="node">
<title>Node25</title>
<g id="a_node25"><a xlink:href="$goertzel_8cpp.html#a9ab293566c92c2f7248ed6a2d45dd58b" xlink:title="Cleanup Goertzel event handles and threads.">
<polygon fill="#ffffff" stroke="#666666" points="367.8591,-210 275.5869,-210 275.5869,-190 367.8591,-190 367.8591,-210"/>
<text text-anchor="middle" x="321.723" y="-197" font-family="Helvetica,sans-Serif" font-size="10.00" fill="#000000">goertzel_cleanup</text>
</a>
</g>
</g>
<!-- Node22&#45;&gt;Node25 -->
<g id="edge26" class="edge">
<title>Node22-&gt;Node25</title>
<path fill="none" stroke="#63b8ff" d="M185.4114,-191.7419C207.4434,-193.0766 238.532,-194.9601 265.4569,-196.5912"/>
<polygon fill="#63b8ff" stroke="#63b8ff" points="265.3513,-200.0912 275.5447,-197.2024 265.7747,-193.104 265.3513,-200.0912"/>
</g>
<!-- Node26 -->
<g id="node26" class="node">
<title>Node26</title>
<g id="a_node26"><a xlink:href="$goertzel_8cpp.html#a2a56fe65909c5aeb5d130dd6eae51cdd" xlink:title="Signal all of the threads so they can end on their own terms.">
<polygon fill="#ffffff" stroke="#666666" points="358.5223,-172 284.9237,-172 284.9237,-152 358.5223,-152 358.5223,-172"/>
<text text-anchor="middle" x="321.723" y="-159" font-family="Helvetica,sans-Serif" font-size="10.00" fill="#000000">goertzel_end</text>
</a>
</g>
</g>
<!-- Node22&#45;&gt;Node26 -->
<g id="edge27" class="edge">
<title>Node22-&gt;Node26</title>
<path fill="none" stroke="#63b8ff" d="M185.4114,-185.1228C210.1162,-180.932 246.2084,-174.8097 275.0488,-169.9174"/>
<polygon fill="#63b8ff" stroke="#63b8ff" points="275.6433,-173.3667 284.917,-168.2435 274.4725,-166.4653 275.6433,-173.3667"/>
</g>
<!-- Node27 -->
<g id="node27" class="node">
<title>Node27</title>
<g id="a_node27"><a xlink:href="$log_8cpp.html#a6895ef574aac68ccafbeb26ee1519ade" xlink:title="Cleanup the logger.">
<polygon fill="#ffffff" stroke="#666666" points="354.7944,-134 288.6516,-134 288.6516,-114 354.7944,-114 354.7944,-134"/>
<text text-anchor="middle" x="321.723" y="-121" font-family="Helvetica,sans-Serif" font-size="10.00" fill="#000000">logCleanup</text>
</a>
</g>
</g>
<!-- Node22&#45;&gt;Node27 -->
<g id="edge28" class="edge">
<title>Node22-&gt;Node27</title>
<path fill="none" stroke="#63b8ff" d="M174.3109,-179.9001C192.957,-169.5503 223.4461,-153.5247 251.217,-143 260.0097,-139.6677 269.626,-136.6714 278.8506,-134.0961"/>
<polygon fill="#63b8ff" stroke="#63b8ff" points="279.8954,-137.4397 288.6489,-131.471 278.0837,-130.6782 279.8954,-137.4397"/>
</g>
<!-- Node28 -->
<g id="node28" class="node">
<title>Node28</title>
<g id="a_node28"><a xlink:href="$mvcView_8cpp.html#aadcdd80cbecad16883c70763e2ea6e2e" xlink:title="Cleanup the resources (in reverse order of their creation)">
<polygon fill="#ffffff" stroke="#666666" points="392.235,-96 251.211,-96 251.211,-76 392.235,-76 392.235,-96"/>
<text text-anchor="middle" x="321.723" y="-83" font-family="Helvetica,sans-Serif" font-size="10.00" fill="#000000">mvcViewCleanupResources</text>
</a>
</g>
</g>
<!-- Node22&#45;&gt;Node28 -->
<g id="edge29" class="edge">
<title>Node22-&gt;Node28</title>
<path fill="none" stroke="#63b8ff" d="M164.9254,-179.9567C180.1289,-162.1462 214.365,-125.0235 251.217,-105 254.9138,-102.9913 258.8371,-101.1842 262.8659,-99.56"/>
<polygon fill="#63b8ff" stroke="#63b8ff" points="264.1988,-102.7996 272.4013,-96.0936 261.8073,-96.2208 264.1988,-102.7996"/>
</g>
<!-- Node29 -->
<g id="node29" class="node">
<title>Node29</title>
<g id="a_node29"><a xlink:href="$mvcView_8cpp.html#ab5224696cb939bcc71085fb51e9872cc" xlink:title="Paint the main window containing the DTMF keypad.">
<polygon fill="#ffffff" stroke="#666666" points="379.0575,-58 264.3885,-58 264.3885,-38 379.0575,-38 379.0575,-58"/>
<text text-anchor="middle" x="321.723" y="-45" font-family="Helvetica,sans-Serif" font-size="10.00" fill="#000000">mvcViewPaintWindow</text>
</a>
</g>
</g>
<!-- Node22&#45;&gt;Node29 -->
<g id="edge30" class="edge">
<title>Node22-&gt;Node29</title>
<path fill="none" stroke="#63b8ff" d="M161.4688,-179.9269C173.2617,-156.3396 205.9858,-97.2397 251.217,-67 253.8204,-65.2594 256.578,-63.6779 259.4356,-62.2408"/>
<polygon fill="#63b8ff" stroke="#63b8ff" points="261.0796,-65.3419 268.8367,-58.1254 258.2724,-58.9294 261.0796,-65.3419"/>
</g>
<!-- Node30 -->
<g id="node30" class="node">
<title>Node30</title>
<g id="a_node30"><a xlink:href="$mvcView_8cpp.html#a1137f2b02c7c8ed412ac8b64600334b6" xlink:title="Paint a frequency label above each column.">
<polygon fill="#ffffff" stroke="#666666" points="520.7393,-96 442.2827,-96 442.2827,-76 520.7393,-76 520.7393,-96"/>
<text text-anchor="middle" x="481.511" y="-83" font-family="Helvetica,sans-Serif" font-size="10.00" fill="#000000">paintColFreqs</text>
</a>
</g>
</g>
<!-- Node29&#45;&gt;Node30 -->
<g id="edge31" class="edge">
<title>Node29-&gt;Node30</title>
<path fill="none" stroke="#63b8ff" d="M364.1237,-58.0835C385.1303,-63.0792 410.6091,-69.1385 432.4544,-74.3336"/>
<polygon fill="#63b8ff" stroke="#63b8ff" points="431.6681,-77.7442 442.2066,-76.6528 433.2877,-70.9341 431.6681,-77.7442"/>
</g>
<!-- Node32 -->
<g id="node32" class="node">
<title>Node32</title>
<g id="a_node32"><a xlink:href="$mvcView_8cpp.html#aac30a49256af90df8139dedb5e5ff276" xlink:title="The detailed work to paint each key on the keypad... painting the rectangle, digit and letters above ...">
<polygon fill="#ffffff" stroke="#666666" points="511.4141,-58 451.6079,-58 451.6079,-38 511.4141,-38 511.4141,-58"/>
<text text-anchor="middle" x="481.511" y="-45" font-family="Helvetica,sans-Serif" font-size="10.00" fill="#000000">paintKeys</text>
</a>
</g>
</g>
<!-- Node29&#45;&gt;Node32 -->
<g id="edge33" class="edge">
<title>Node29-&gt;Node32</title>
<path fill="none" stroke="#63b8ff" d="M378.9588,-48C399.6616,-48 422.5772,-48 441.4863,-48"/>
<polygon fill="#63b8ff" stroke="#63b8ff" points="441.5397,-51.5001 451.5396,-48 441.5396,-44.5001 441.5397,-51.5001"/>
</g>
<!-- Node33 -->
<g id="node33" class="node">
<title>Node33</title>
<g id="a_node33"><a xlink:href="$mvcView_8cpp.html#ab8104e776553c1a94e3b84601764022e" xlink:title="Paint a frequency label before each row.">
<polygon fill="#ffffff" stroke="#666666" points="523.2393,-20 439.7827,-20 439.7827,0 523.2393,0 523.2393,-20"/>
<text text-anchor="middle" x="481.511" y="-7" font-family="Helvetica,sans-Serif" font-size="10.00" fill="#000000">paintRowFreqs</text>
</a>
</g>
</g>
<!-- Node29&#45;&gt;Node33 -->
<g id="edge35" class="edge">
<title>Node29-&gt;Node33</title>
<path fill="none" stroke="#63b8ff" d="M364.1237,-37.9165C384.3173,-33.1141 408.6437,-27.329 429.9022,-22.2733"/>
<polygon fill="#63b8ff" stroke="#63b8ff" points="430.8241,-25.6518 439.743,-19.9331 429.2045,-18.8417 430.8241,-25.6518"/>
</g>
<!-- Node31 -->
<g id="node31" class="node">
<title>Node31</title>
<g id="a_node31"><a xlink:href="$mvcView_8cpp.html#a5f1680754734f68059dc7827fac420f2" xlink:title="Populate a D2D1_RECT_F rectangle and ensure that the new rectangle needs to be updated by checking pU...">
<polygon fill="#ffffff" stroke="#666666" points="704.1533,-58 620.6947,-58 620.6947,-38 704.1533,-38 704.1533,-58"/>
<text text-anchor="middle" x="662.424" y="-45" font-family="Helvetica,sans-Serif" font-size="10.00" fill="#000000">makeFloatRect</text>
</a>
</g>
</g>
<!-- Node30&#45;&gt;Node31 -->
<g id="edge32" class="edge">
<title>Node30-&gt;Node31</title>
<path fill="none" stroke="#63b8ff" d="M520.7664,-77.7546C547.1674,-72.2091 582.2449,-64.8413 610.8887,-58.8248"/>
<polygon fill="#63b8ff" stroke="#63b8ff" points="611.6603,-62.2392 620.7273,-56.7582 610.2213,-55.3886 611.6603,-62.2392"/>
</g>
<!-- Node32&#45;&gt;Node31 -->
<g id="edge34" class="edge">
<title>Node32-&gt;Node31</title>
<path fill="none" stroke="#63b8ff" d="M511.7918,-48C538.6584,-48 578.4868,-48 610.442,-48"/>
<polygon fill="#63b8ff" stroke="#63b8ff" points="610.514,-51.5001 620.514,-48 610.514,-44.5001 610.514,-51.5001"/>
</g>
<!-- Node33&#45;&gt;Node31 -->
<g id="edge36" class="edge">
<title>Node33-&gt;Node31</title>
<path fill="none" stroke="#63b8ff" d="M523.4708,-18.8135C549.501,-24.281 583.1383,-31.3464 610.7972,-37.156"/>
<polygon fill="#63b8ff" stroke="#63b8ff" points="610.1858,-40.6039 620.6917,-39.2343 611.6248,-33.7534 610.1858,-40.6039"/>
</g>
</g>
</svg>