<?xml version="1.0" encoding="UTF-8" standalone="no"?><!DOCTYPE svg PUBLIC "-//W3C//DTD SVG 1.1//EN" "http://www.w3.org/Graphics/SVG/1.1/DTD/svg11.dtd"><!-- Generated by graphviz version 2.40.1 (20161225.0304)
 --><!-- Title: wWinMain Pages: 1 --><svg xmlns="http://www.w3.org/2000/svg" xmlns:xlink="http://www.w3.org/1999/xlink" width="889pt" height="545pt" viewBox="0.00 0.00 888.97 545.00">
<g id="graph0" class="graph" transform="scale(1 1) rotate(0) translate(4 541)">
<title>wWinMain</title>
<g id="clust1" class="cluster">
<title>cluster_0</title>
<polygon fill="#d3d3d3" stroke="#d3d3d3" points="420.229,-235 420.229,-334 762.055,-334 762.055,-235 420.229,-235"/>
<text text-anchor="middle" x="591.142" y="-317.4" font-family="Helvetica,sans-Serif" font-size="14.00" fill="#000000">Goertzel Work Threads (x8)</text>
</g>
<g id="clust2" class="cluster">
<title>cluster_1</title>
<polygon fill="#d3d3d3" stroke="#d3d3d3" points="259.877,-372 259.877,-509 872.966,-509 872.966,-372 259.877,-372"/>
<text text-anchor="middle" x="566.4215" y="-492.4" font-family="Helvetica,sans-Serif" font-size="14.00" fill="#000000">Audio Capture Thread</text>
</g>
<!-- Node14 -->
<g id="node1" class="node">
<title>Node14</title>
<g id="a_node1"><a xlink:href="$goertzel_8cpp.html#a66d78f41dc38ffa372912b2d4078023f" xlink:title="Runs one of the 8 DFT worker threads.">
<polygon fill="#ffffff" stroke="#666666" points="534.5759,-301 428.4461,-301 428.4461,-281 534.5759,-281 534.5759,-301"/>
<text text-anchor="middle" x="481.511" y="-288" font-family="Helvetica,sans-Serif" font-size="10.00" fill="#000000">goertzelWorkThread</text>
</a>
</g>
</g>
<!-- Node15 -->
<g id="node2" class="node">
<title>Node15</title>
<g id="a_node2"><a xlink:href="$goertzel_8cpp.html#a7b931e498a5f0a93f2a1db8af404ccf4" xlink:title="Compute the Goertzel magnitude of 8-bit PCM data.">
<polygon fill="#ffffff" stroke="#666666" points="714.2272,-263 610.6208,-263 610.6208,-243 714.2272,-243 714.2272,-263"/>
<text text-anchor="middle" x="662.424" y="-250" font-family="Helvetica,sans-Serif" font-size="10.00" fill="#000000">goertzel_magnitude</text>
</a>
</g>
</g>
<!-- Node14&#45;&gt;Node15 -->
<g id="edge1" class="edge">
<title>Node14-&gt;Node15</title>
<path fill="none" stroke="#63b8ff" d="M528.3014,-280.9945C541.9934,-278.0797 556.9901,-274.8997 570.793,-272 581.5053,-269.7496 592.9258,-267.3676 603.9399,-265.0793"/>
<polygon fill="#63b8ff" stroke="#63b8ff" points="604.8284,-268.4696 613.9085,-263.0106 603.4059,-261.6156 604.8284,-268.4696"/>
</g>
<!-- Node16 -->
<g id="node3" class="node">
<title>Node16</title>
<g id="a_node3"><a xlink:href="$mvcModel_8h.html#a7de7b93a7c3e0280e0df75d860053fd5" xlink:title="Determine if the state of a DTMF tone detection has changed.">
<polygon fill="#ffffff" stroke="#666666" points="754.1862,-301 570.6618,-301 570.6618,-281 754.1862,-281 754.1862,-301"/>
<text text-anchor="middle" x="662.424" y="-288" font-family="Helvetica,sans-Serif" font-size="10.00" fill="#000000">mvcModelToggleToneDetectedStatus</text>
</a>
</g>
</g>
<!-- Node14&#45;&gt;Node16 -->
<g id="edge2" class="edge">
<title>Node14-&gt;Node16</title>
<path fill="none" stroke="#63b8ff" d="M534.8124,-291C542.9031,-291 551.4738,-291 560.193,-291"/>
<polygon fill="#63b8ff" stroke="#63b8ff" points="560.4769,-294.5001 570.4769,-291 560.4768,-287.5001 560.4769,-294.5001"/>
</g>
<!-- Node8 -->
<g id="node14" class="node">
<title>Node8</title>
<g id="a_node14"><a xlink:href="$DTMF__Decoder_8cpp.html#ab51c747b8e9f544fb2cb2ada323c9292" xlink:title="Gracefully initiate the shutdown of the application.">
<polygon fill="#ffffff" stroke="#666666" points="710.449,-362 614.399,-362 614.399,-342 710.449,-342 710.449,-362"/>
<text text-anchor="middle" x="662.424" y="-349" font-family="Helvetica,sans-Serif" font-size="10.00" fill="#000000">gracefulShutdown</text>
</a>
</g>
</g>
<!-- Node14&#45;&gt;Node8 -->
<g id="edge17" class="edge">
<title>Node14-&gt;Node8</title>
<path fill="none" stroke="#63b8ff" d="M496.9283,-301.1677C514.1861,-312.0488 543.34,-328.9606 570.793,-338 581.3256,-341.4681 592.8269,-344.0835 604.0123,-346.054"/>
<polygon fill="#63b8ff" stroke="#63b8ff" points="603.7295,-349.5534 614.1588,-347.6882 604.8427,-342.6425 603.7295,-349.5534"/>
</g>
<!-- Node5 -->
<g id="node4" class="node">
<title>Node5</title>
<g id="a_node4"><a xlink:href="$audio_8cpp.html#a0d5a135c46acd46c0de0f0135c586b5f" xlink:title="This thread waits for the audio device to call us back when it has some data to process.">
<polygon fill="#ffffff" stroke="#666666" points="375.4154,-400 268.0306,-400 268.0306,-380 375.4154,-380 375.4154,-400"/>
<text text-anchor="middle" x="321.723" y="-387" font-family="Helvetica,sans-Serif" font-size="10.00" fill="#000000">audioCaptureThread</text>
</a>
</g>
</g>
<!-- Node6 -->
<g id="node5" class="node">
<title>Node6</title>
<g id="a_node5"><a xlink:href="$audio_8cpp.html#a904b8424a3b1eba0ee5be3c7797d0846" xlink:title="Get audio frames from the device and process them.">
<polygon fill="#ffffff" stroke="#666666" points="519.529,-400 443.493,-400 443.493,-380 519.529,-380 519.529,-400"/>
<text text-anchor="middle" x="481.511" y="-387" font-family="Helvetica,sans-Serif" font-size="10.00" fill="#000000">audioCapture</text>
</a>
</g>
</g>
<!-- Node5&#45;&gt;Node6 -->
<g id="edge3" class="edge">
<title>Node5-&gt;Node6</title>
<path fill="none" stroke="#63b8ff" d="M375.8199,-390C394.3733,-390 415.0058,-390 433.0811,-390"/>
<polygon fill="#63b8ff" stroke="#63b8ff" points="433.1108,-393.5001 443.1107,-390 433.1107,-386.5001 433.1108,-393.5001"/>
</g>
<!-- Node5&#45;&gt;Node8 -->
<g id="edge13" class="edge">
<title>Node5-&gt;Node8</title>
<path fill="none" stroke="#63b8ff" d="M368.1477,-379.934C384.5387,-376.6757 403.1417,-373.3107 420.229,-371 482.6625,-362.5571 554.6962,-357.4981 603.8701,-354.7486"/>
<polygon fill="#63b8ff" stroke="#63b8ff" points="604.2098,-358.2353 614.0046,-354.1965 603.829,-351.2457 604.2098,-358.2353"/>
</g>
<!-- Node7 -->
<g id="node6" class="node">
<title>Node7</title>
<g id="a_node6"><a xlink:href="$goertzel_8cpp.html#a1403e4b9b099e2b67396c6999d80154a" xlink:title="Signal the 8 Goertzel worker threads, then wait for them to finish their analysis.">
<polygon fill="#ffffff" stroke="#666666" points="737.9108,-400 586.9372,-400 586.9372,-380 737.9108,-380 737.9108,-400"/>
<text text-anchor="middle" x="662.424" y="-387" font-family="Helvetica,sans-Serif" font-size="10.00" fill="#000000">goertzel_compute_dtmf_tones</text>
</a>
</g>
</g>
<!-- Node6&#45;&gt;Node7 -->
<g id="edge4" class="edge">
<title>Node6-&gt;Node7</title>
<path fill="none" stroke="#63b8ff" d="M519.878,-390C536.5593,-390 556.8258,-390 576.7793,-390"/>
<polygon fill="#63b8ff" stroke="#63b8ff" points="576.8471,-393.5001 586.847,-390 576.847,-386.5001 576.8471,-393.5001"/>
</g>
<!-- Node10 -->
<g id="node7" class="node">
<title>Node10</title>
<g id="a_node7"><a xlink:href="$audio_8cpp.html#a6cda0abf4600bd7ee57889f9a995ba96" xlink:title="Process the audio frameIndex, converting it into PCM_8, adding the sample to gPcmQueue and monitoring...">
<polygon fill="#ffffff" stroke="#666666" points="715.381,-438 609.467,-438 609.467,-418 715.381,-418 715.381,-438"/>
<text text-anchor="middle" x="662.424" y="-425" font-family="Helvetica,sans-Serif" font-size="10.00" fill="#000000">processAudioFrame</text>
</a>
</g>
</g>
<!-- Node6&#45;&gt;Node10 -->
<g id="edge5" class="edge">
<title>Node6-&gt;Node10</title>
<path fill="none" stroke="#63b8ff" d="M519.735,-398.1802C535.536,-401.5498 554.0434,-405.4812 570.793,-409 581.5053,-411.2504 592.9258,-413.6324 603.9399,-415.9207"/>
<polygon fill="#63b8ff" stroke="#63b8ff" points="603.4059,-419.3844 613.9085,-417.9894 604.8284,-412.5304 603.4059,-419.3844"/>
</g>
<!-- Node9 -->
<g id="node8" class="node">
<title>Node9</title>
<g id="a_node8"><a xlink:href="$mvcView_8cpp.html#aa35f3a376496132b2e1a2c3f4ba734a7" xlink:title="Repaint the main window (keypad) – probably because the state of one of the buttons has changed.">
<polygon fill="#ffffff" stroke="#666666" points="725.4778,-476 599.3702,-476 599.3702,-456 725.4778,-456 725.4778,-476"/>
<text text-anchor="middle" x="662.424" y="-463" font-family="Helvetica,sans-Serif" font-size="10.00" fill="#000000">mvcViewRefreshWindow</text>
</a>
</g>
</g>
<!-- Node6&#45;&gt;Node9 -->
<g id="edge6" class="edge">
<title>Node6-&gt;Node9</title>
<path fill="none" stroke="#63b8ff" d="M494.0004,-400.0871C510.5587,-412.9437 541.1529,-434.9434 570.793,-447 576.6199,-449.3702 582.7802,-451.458 589.0399,-453.2947"/>
<polygon fill="#63b8ff" stroke="#63b8ff" points="588.3569,-456.7359 598.9246,-455.9787 590.1912,-449.9805 588.3569,-456.7359"/>
</g>
<!-- Node6&#45;&gt;Node8 -->
<g id="edge12" class="edge">
<title>Node6-&gt;Node8</title>
<path fill="none" stroke="#63b8ff" d="M519.6121,-379.9998C535.3942,-376.0172 553.9208,-371.5474 570.793,-368 581.5615,-365.7359 593.0893,-363.5435 604.2094,-361.5451"/>
<polygon fill="#63b8ff" stroke="#63b8ff" points="605.0345,-364.9536 614.2735,-359.7678 603.8172,-358.0602 605.0345,-364.9536"/>
</g>
<!-- Node11 -->
<g id="node9" class="node">
<title>Node11</title>
<g id="a_node9"><a xlink:href="$mvcModel_8h.html#a58d02f9b7016647bfc4e83e2da3df637" xlink:title="Enqueue a byte of PCM data to gPcmQueue">
<polygon fill="#ffffff" stroke="#666666" points="864.9216,-438 790.0994,-438 790.0994,-418 864.9216,-418 864.9216,-438"/>
<text text-anchor="middle" x="827.5105" y="-425" font-family="Helvetica,sans-Serif" font-size="10.00" fill="#000000">pcmEnqueue</text>
</a>
</g>
</g>
<!-- Node10&#45;&gt;Node11 -->
<g id="edge7" class="edge">
<title>Node10-&gt;Node11</title>
<path fill="none" stroke="#63b8ff" d="M715.5671,-428C736.1956,-428 759.6421,-428 779.7284,-428"/>
<polygon fill="#63b8ff" stroke="#63b8ff" points="779.8933,-431.5001 789.8933,-428 779.8933,-424.5001 779.8933,-431.5001"/>
</g>
<!-- Node1 -->
<g id="node10" class="node">
<title>Node1</title>
<g id="a_node10"><a xlink:title="Program entrypoint.">
<polygon fill="#999999" stroke="#666666" points="62.1531,-305 -.0511,-305 -.0511,-285 62.1531,-285 62.1531,-305"/>
<text text-anchor="middle" x="31.051" y="-292" font-family="Helvetica,sans-Serif" font-size="10.00" fill="#000000">wWinMain</text>
</a>
</g>
</g>
<!-- Node2 -->
<g id="node11" class="node">
<title>Node2</title>
<g id="a_node11"><a xlink:href="$audio_8cpp.html#a14c68cb6d5f722f9905d837f3b199b5e" xlink:title="Cleanup all things audio.">
<polygon fill="#ffffff" stroke="#666666" points="195.3481,-468 117.9709,-468 117.9709,-448 195.3481,-448 195.3481,-468"/>
<text text-anchor="middle" x="156.6595" y="-455" font-family="Helvetica,sans-Serif" font-size="10.00" fill="#000000">audioCleanup</text>
</a>
</g>
</g>
<!-- Node1&#45;&gt;Node2 -->
<g id="edge8" class="edge">
<title>Node1-&gt;Node2</title>
<path fill="none" stroke="#63b8ff" d="M38.9084,-305.1964C59.6155,-332.0677 115.9065,-405.1156 142.4488,-439.559"/>
<polygon fill="#63b8ff" stroke="#63b8ff" points="139.9288,-442.0229 148.8051,-447.8075 145.4735,-437.7501 139.9288,-442.0229"/>
</g>
<!-- Node4 -->
<g id="node13" class="node">
<title>Node4</title>
<g id="a_node13"><a xlink:href="$audio_8cpp.html#ab70c083a94ae0d8c4d41f3f16f5fadf6" xlink:title="Initialize the audio capture device and start the capture thread.">
<polygon fill="#ffffff" stroke="#666666" points="183.4509,-343 129.8681,-343 129.8681,-323 183.4509,-323 183.4509,-343"/>
<text text-anchor="middle" x="156.6595" y="-330" font-family="Helvetica,sans-Serif" font-size="10.00" fill="#000000">audioInit</text>
</a>
</g>
</g>
<!-- Node1&#45;&gt;Node4 -->
<g id="edge10" class="edge">
<title>Node1-&gt;Node4</title>
<path fill="none" stroke="#63b8ff" d="M62.4233,-304.491C79.8356,-309.7587 101.5909,-316.3403 119.81,-321.852"/>
<polygon fill="#63b8ff" stroke="#63b8ff" points="118.9328,-325.2433 129.5179,-324.7889 120.9598,-318.5431 118.9328,-325.2433"/>
</g>
<!-- Node18 -->
<g id="node18" class="node">
<title>Node18</title>
<g id="a_node18"><a xlink:href="$mvcModel_8cpp.html#afba4e16ba72d01f6eb03b9c4f4a4d400" xlink:title="Currently does nothing, but it's good to have around.">
<polygon fill="#ffffff" stroke="#666666" points="194.0496,-305 119.2694,-305 119.2694,-285 194.0496,-285 194.0496,-305"/>
<text text-anchor="middle" x="156.6595" y="-292" font-family="Helvetica,sans-Serif" font-size="10.00" fill="#000000">mvcModelInit</text>
</a>
</g>
</g>
<!-- Node1&#45;&gt;Node18 -->
<g id="edge19" class="edge">
<title>Node1-&gt;Node18</title>
<path fill="none" stroke="#63b8ff" d="M62.4233,-295C76.4908,-295 93.3929,-295 108.9749,-295"/>
<polygon fill="#63b8ff" stroke="#63b8ff" points="108.9808,-298.5001 118.9808,-295 108.9808,-291.5001 108.9808,-298.5001"/>
</g>
<!-- Node19 -->
<g id="node19" class="node">
<title>Node19</title>
<g id="a_node19"><a xlink:href="$mvcView_8cpp.html#a439e3f885b2da7f984a87d9621ee6803" xlink:title="Initialize all of the resources needed to draw the main window.">
<polygon fill="#ffffff" stroke="#666666" points="215.2746,-267 98.0444,-267 98.0444,-247 215.2746,-247 215.2746,-267"/>
<text text-anchor="middle" x="156.6595" y="-254" font-family="Helvetica,sans-Serif" font-size="10.00" fill="#000000">mvcViewInitResources</text>
</a>
</g>
</g>
<!-- Node1&#45;&gt;Node19 -->
<g id="edge20" class="edge">
<title>Node1-&gt;Node19</title>
<path fill="none" stroke="#63b8ff" d="M62.4233,-285.509C77.9736,-280.8046 96.9876,-275.0524 113.8534,-269.95"/>
<polygon fill="#63b8ff" stroke="#63b8ff" points="114.935,-273.2795 123.493,-267.0338 112.908,-266.5794 114.935,-273.2795"/>
</g>
<!-- Node20 -->
<g id="node20" class="node">
<title>Node20</title>
<g id="a_node20"><a xlink:href="$DTMF__Decoder_8cpp.html#a30a1e3b0304f1b083637664cbda94e72" xlink:title="Message handler for the main window.">
<polygon fill="#ffffff" stroke="#666666" points="185.2736,-172 128.0454,-172 128.0454,-152 185.2736,-152 185.2736,-172"/>
<text text-anchor="middle" x="156.6595" y="-159" font-family="Helvetica,sans-Serif" font-size="10.00" fill="#000000">WndProc</text>
</a>
</g>
</g>
<!-- Node1&#45;&gt;Node20 -->
<g id="edge21" class="edge">
<title>Node1-&gt;Node20</title>
<path fill="none" stroke="#63b8ff" d="M40.9073,-284.5637C62.3836,-261.8236 113.5966,-207.597 140.1141,-179.519"/>
<polygon fill="#63b8ff" stroke="#63b8ff" points="142.8711,-181.6973 147.1927,-172.0239 137.7819,-176.8909 142.8711,-181.6973"/>
</g>
<!-- Node3 -->
<g id="node12" class="node">
<title>Node3</title>
<g id="a_node12"><a xlink:href="$mvcModel_8cpp.html#a599848a20b16abb30c5ccdac8759f7b0" xlink:title="Release the memory allocated to gPcmQueue.">
<polygon fill="#ffffff" stroke="#666666" points="372.3009,-537 271.1451,-537 271.1451,-517 372.3009,-517 372.3009,-537"/>
<text text-anchor="middle" x="321.723" y="-524" font-family="Helvetica,sans-Serif" font-size="10.00" fill="#000000">pcmReleaseQueue</text>
</a>
</g>
</g>
<!-- Node2&#45;&gt;Node3 -->
<g id="edge9" class="edge">
<title>Node2-&gt;Node3</title>
<path fill="none" stroke="#63b8ff" d="M170.6512,-468.1481C188.4807,-480.5922 220.6623,-501.4496 251.217,-513 254.4673,-514.2287 257.8446,-515.3557 261.2829,-516.3887"/>
<polygon fill="#63b8ff" stroke="#63b8ff" points="260.5109,-519.8058 271.0792,-519.0569 262.3505,-513.0519 260.5109,-519.8058"/>
</g>
<!-- Node4&#45;&gt;Node5 -->
<g id="edge11" class="edge">
<title>Node4-&gt;Node5</title>
<path fill="none" stroke="#63b8ff" d="M179.6881,-343.1497C198.6602,-351.2935 226.3838,-362.6968 251.217,-371 257.6794,-373.1608 264.5362,-375.2517 271.337,-377.207"/>
<polygon fill="#63b8ff" stroke="#63b8ff" points="270.6352,-380.645 281.2083,-379.9669 272.5201,-373.9035 270.6352,-380.645"/>
</g>
<!-- Node12 -->
<g id="node15" class="node">
<title>Node12</title>
<g id="a_node15"><a xlink:href="$audio_8cpp.html#ae5d64151681c70f4e2aa8f2030c85a40" xlink:title="Print the WAVEFORMATEX or WAVEFORMATEXTENSIBLE structure to OutputDebug.">
<polygon fill="#ffffff" stroke="#666666" points="380.9542,-362 262.4918,-362 262.4918,-342 380.9542,-342 380.9542,-362"/>
<text text-anchor="middle" x="321.723" y="-349" font-family="Helvetica,sans-Serif" font-size="10.00" fill="#000000">audioPrintWaveFormat</text>
</a>
</g>
</g>
<!-- Node4&#45;&gt;Node12 -->
<g id="edge14" class="edge">
<title>Node4-&gt;Node12</title>
<path fill="none" stroke="#63b8ff" d="M183.5472,-336.095C202.1717,-338.2388 227.8728,-341.1972 252.0617,-343.9815"/>
<polygon fill="#63b8ff" stroke="#63b8ff" points="251.9761,-347.4947 262.3108,-345.1612 252.7766,-340.5406 251.9761,-347.4947"/>
</g>
<!-- Node13 -->
<g id="node16" class="node">
<title>Node13</title>
<g id="a_node16"><a xlink:href="$goertzel_8cpp.html#a8a455f45eb4c8d36a38dcfc671c12ae5" xlink:title="Initialize values needed by the Goertzel DFT.">
<polygon fill="#ffffff" stroke="#666666" points="356.6211,-324 286.8249,-324 286.8249,-304 356.6211,-304 356.6211,-324"/>
<text text-anchor="middle" x="321.723" y="-311" font-family="Helvetica,sans-Serif" font-size="10.00" fill="#000000">goertzel_init</text>
</a>
</g>
</g>
<!-- Node4&#45;&gt;Node13 -->
<g id="edge15" class="edge">
<title>Node4-&gt;Node13</title>
<path fill="none" stroke="#63b8ff" d="M183.5472,-329.905C208.7163,-327.0079 246.8091,-322.6231 276.6284,-319.1907"/>
<polygon fill="#63b8ff" stroke="#63b8ff" points="277.262,-322.641 286.7961,-318.0203 276.4614,-315.6869 277.262,-322.641"/>
</g>
<!-- Node17 -->
<g id="node17" class="node">
<title>Node17</title>
<g id="a_node17"><a xlink:href="$mvcModel_8cpp.html#af8dd5b7c6f2c447fa7eee420a54b9ce7" xlink:title="Set the size of gPcmQueue, allocate and zero the space for it.">
<polygon fill="#ffffff" stroke="#666666" points="371.5806,-286 271.8654,-286 271.8654,-266 371.5806,-266 371.5806,-286"/>
<text text-anchor="middle" x="321.723" y="-273" font-family="Helvetica,sans-Serif" font-size="10.00" fill="#000000">pcmSetQueueSize</text>
</a>
</g>
</g>
<!-- Node4&#45;&gt;Node17 -->
<g id="edge18" class="edge">
<title>Node4-&gt;Node17</title>
<path fill="none" stroke="#63b8ff" d="M183.5401,-325.3426C193.6161,-322.1962 205.076,-318.2838 215.217,-314 231.8827,-306.96 234.3788,-301.6168 251.217,-295 256.7349,-292.8317 262.5896,-290.8215 268.4741,-288.9841"/>
<polygon fill="#63b8ff" stroke="#63b8ff" points="269.7573,-292.2543 278.3509,-286.0575 267.7686,-285.5428 269.7573,-292.2543"/>
</g>
<!-- Node13&#45;&gt;Node14 -->
<g id="edge16" class="edge">
<title>Node13-&gt;Node14</title>
<path fill="none" stroke="#63b8ff" d="M356.7892,-308.9526C374.7895,-306.3616 397.2784,-303.1245 418.1844,-300.1153"/>
<polygon fill="#63b8ff" stroke="#63b8ff" points="418.8942,-303.5493 428.2935,-298.6602 417.8968,-296.6207 418.8942,-303.5493"/>
</g>
<!-- Node21 -->
<g id="node21" class="node">
<title>Node21</title>
<g id="a_node21"><a xlink:href="$DTMF__Decoder_8cpp.html#aa9ea8fa776a88d87ad4600dfe701882a" xlink:title="Message handler for the About dialog box.">
<polygon fill="#ffffff" stroke="#666666" points="342.8482,-248 300.5978,-248 300.5978,-228 342.8482,-228 342.8482,-248"/>
<text text-anchor="middle" x="321.723" y="-235" font-family="Helvetica,sans-Serif" font-size="10.00" fill="#000000">About</text>
</a>
</g>
</g>
<!-- Node20&#45;&gt;Node21 -->
<g id="edge22" class="edge">
<title>Node20-&gt;Node21</title>
<path fill="none" stroke="#63b8ff" d="M170.7238,-172.2086C188.6282,-184.7869 220.887,-206.0745 251.217,-219 263.6994,-224.3195 278.0687,-228.5122 290.5652,-231.5904"/>
<polygon fill="#63b8ff" stroke="#63b8ff" points="290.0058,-235.0537 300.5392,-233.9142 291.5943,-228.2363 290.0058,-235.0537"/>
</g>
<!-- Node22 -->
<g id="node22" class="node">
<title>Node22</title>
<g id="a_node22"><a xlink:href="$audio_8cpp.html#afa5f082435f8bb7259188938ac7126cb" xlink:title="Stop the audio device.">
<polygon fill="#ffffff" stroke="#666666" points="367.301,-210 276.145,-210 276.145,-190 367.301,-190 367.301,-210"/>
<text text-anchor="middle" x="321.723" y="-197" font-family="Helvetica,sans-Serif" font-size="10.00" fill="#000000">audioStopDevice</text>
</a>
</g>
</g>
<!-- Node20&#45;&gt;Node22 -->
<g id="edge23" class="edge">
<title>Node20-&gt;Node22</title>
<path fill="none" stroke="#63b8ff" d="M185.4114,-168.6191C208.1985,-173.865 240.6738,-181.3413 268.2103,-187.6806"/>
<polygon fill="#63b8ff" stroke="#63b8ff" points="267.5745,-191.1257 278.1048,-189.9585 269.145,-184.3041 267.5745,-191.1257"/>
</g>
<!-- Node23 -->
<g id="node23" class="node">
<title>Node23</title>
<g id="a_node23"><a xlink:href="$goertzel_8cpp.html#a9ab293566c92c2f7248ed6a2d45dd58b" xlink:title="Cleanup Goertzel event handles and threads.">
<polygon fill="#ffffff" stroke="#666666" points="367.8591,-172 275.5869,-172 275.5869,-152 367.8591,-152 367.8591,-172"/>
<text text-anchor="middle" x="321.723" y="-159" font-family="Helvetica,sans-Serif" font-size="10.00" fill="#000000">goertzel_cleanup</text>
</a>
</g>
</g>
<!-- Node20&#45;&gt;Node23 -->
<g id="edge24" class="edge">
<title>Node20-&gt;Node23</title>
<path fill="none" stroke="#63b8ff" d="M185.4114,-162C207.4434,-162 238.532,-162 265.4569,-162"/>
<polygon fill="#63b8ff" stroke="#63b8ff" points="265.5447,-165.5001 275.5447,-162 265.5447,-158.5001 265.5447,-165.5001"/>
</g>
<!-- Node24 -->
<g id="node24" class="node">
<title>Node24</title>
<g id="a_node24"><a xlink:href="$goertzel_8cpp.html#a2a56fe65909c5aeb5d130dd6eae51cdd" xlink:title="Signal all of the threads so they can end on their own terms.">
<polygon fill="#ffffff" stroke="#666666" points="358.5223,-134 284.9237,-134 284.9237,-114 358.5223,-114 358.5223,-134"/>
<text text-anchor="middle" x="321.723" y="-121" font-family="Helvetica,sans-Serif" font-size="10.00" fill="#000000">goertzel_end</text>
</a>
</g>
</g>
<!-- Node20&#45;&gt;Node24 -->
<g id="edge25" class="edge">
<title>Node20-&gt;Node24</title>
<path fill="none" stroke="#63b8ff" d="M185.4114,-155.3809C210.1162,-149.6935 246.2084,-141.3845 275.0488,-134.7451"/>
<polygon fill="#63b8ff" stroke="#63b8ff" points="275.9572,-138.1276 284.917,-132.4733 274.3867,-131.306 275.9572,-138.1276"/>
</g>
<!-- Node25 -->
<g id="node25" class="node">
<title>Node25</title>
<g id="a_node25"><a xlink:href="$mvcView_8cpp.html#aadcdd80cbecad16883c70763e2ea6e2e" xlink:title="Cleanup the resources (in reverse order of their creation)">
<polygon fill="#ffffff" stroke="#666666" points="392.235,-96 251.211,-96 251.211,-76 392.235,-76 392.235,-96"/>
<text text-anchor="middle" x="321.723" y="-83" font-family="Helvetica,sans-Serif" font-size="10.00" fill="#000000">mvcViewCleanupResources</text>
</a>
</g>
</g>
<!-- Node20&#45;&gt;Node25 -->
<g id="edge26" class="edge">
<title>Node20-&gt;Node25</title>
<path fill="none" stroke="#63b8ff" d="M170.7238,-151.7914C188.6282,-139.2131 220.887,-117.9255 251.217,-105 256.3193,-102.8256 261.7369,-100.8395 267.2129,-99.0408"/>
<polygon fill="#63b8ff" stroke="#63b8ff" points="268.5492,-102.2916 277.0776,-96.0054 266.4904,-95.6012 268.5492,-102.2916"/>
</g>
<!-- Node26 -->
<g id="node26" class="node">
<title>Node26</title>
<g id="a_node26"><a xlink:href="$mvcView_8cpp.html#a267d88ecafe4f135fc4d40ec5d3e6cc3" xlink:title="Paint the main window containing the DTMF keypad.">
<polygon fill="#ffffff" stroke="#666666" points="379.0575,-58 264.3885,-58 264.3885,-38 379.0575,-38 379.0575,-58"/>
<text text-anchor="middle" x="321.723" y="-45" font-family="Helvetica,sans-Serif" font-size="10.00" fill="#000000">mvcViewPaintWindow</text>
</a>
</g>
</g>
<!-- Node20&#45;&gt;Node26 -->
<g id="edge27" class="edge">
<title>Node20-&gt;Node26</title>
<path fill="none" stroke="#63b8ff" d="M163.7397,-151.9673C177.9978,-132.5257 212.1631,-89.6458 251.217,-67 254.6356,-65.0177 258.267,-63.2364 262.0088,-61.6366"/>
<polygon fill="#63b8ff" stroke="#63b8ff" points="263.3838,-64.8582 271.4786,-58.0226 260.8879,-58.3182 263.3838,-64.8582"/>
</g>
<!-- Node27 -->
<g id="node27" class="node">
<title>Node27</title>
<g id="a_node27"><a xlink:href="$mvcView_8cpp.html#a78b9f78c3c9e8ad900a47cb655a94d7e" xlink:title="Paint a frequency label above each column.">
<polygon fill="#ffffff" stroke="#666666" points="518.2394,-96 444.7826,-96 444.7826,-76 518.2394,-76 518.2394,-96"/>
<text text-anchor="middle" x="481.511" y="-83" font-family="Helvetica,sans-Serif" font-size="10.00" fill="#000000">paintColFreq</text>
</a>
</g>
</g>
<!-- Node26&#45;&gt;Node27 -->
<g id="edge28" class="edge">
<title>Node26-&gt;Node27</title>
<path fill="none" stroke="#63b8ff" d="M364.1237,-58.0835C385.932,-63.2699 412.5605,-69.6025 434.9394,-74.9246"/>
<polygon fill="#63b8ff" stroke="#63b8ff" points="434.3515,-78.3823 444.89,-77.291 435.9711,-71.5722 434.3515,-78.3823"/>
</g>
<!-- Node28 -->
<g id="node28" class="node">
<title>Node28</title>
<g id="a_node28"><a xlink:href="$mvcView_8cpp.html#ace5b1cc0fb6de8c58911680788b42cd4" xlink:title="The detailed work to paint each key on the keypad... painting the rectangle, digit and letters above ...">
<polygon fill="#ffffff" stroke="#666666" points="508.9141,-58 454.1079,-58 454.1079,-38 508.9141,-38 508.9141,-58"/>
<text text-anchor="middle" x="481.511" y="-45" font-family="Helvetica,sans-Serif" font-size="10.00" fill="#000000">paintKey</text>
</a>
</g>
</g>
<!-- Node26&#45;&gt;Node28 -->
<g id="edge29" class="edge">
<title>Node26-&gt;Node28</title>
<path fill="none" stroke="#63b8ff" d="M378.9588,-48C400.4172,-48 424.2528,-48 443.5403,-48"/>
<polygon fill="#63b8ff" stroke="#63b8ff" points="443.7437,-51.5001 453.7437,-48 443.7436,-44.5001 443.7437,-51.5001"/>
</g>
<!-- Node29 -->
<g id="node29" class="node">
<title>Node29</title>
<g id="a_node29"><a xlink:href="$mvcView_8cpp.html#a83a262eeeacf184eddd9af3ec2b24d35" xlink:title="Paint a frequency label before each row.">
<polygon fill="#ffffff" stroke="#666666" points="520.7393,-20 442.2827,-20 442.2827,0 520.7393,0 520.7393,-20"/>
<text text-anchor="middle" x="481.511" y="-7" font-family="Helvetica,sans-Serif" font-size="10.00" fill="#000000">paintRowFreq</text>
</a>
</g>
</g>
<!-- Node26&#45;&gt;Node29 -->
<g id="edge30" class="edge">
<title>Node26-&gt;Node29</title>
<path fill="none" stroke="#63b8ff" d="M364.1237,-37.9165C385.1303,-32.9208 410.6091,-26.8615 432.4544,-21.6664"/>
<polygon fill="#63b8ff" stroke="#63b8ff" points="433.2877,-25.0659 442.2066,-19.3472 431.6681,-18.2558 433.2877,-25.0659"/>
</g>
</g>
</svg>